<svg width="38" height="32" viewBox="0 0 38 32" fill="none" xmlns="http://www.w3.org/2000/svg">
<path d="M1.60312 31.8531C1.30625 31.8531 1.12812 31.8531 0.83125 31.675C0.296875 31.3781 0 30.9031 0 30.25V1.74998C0 0.799976 0.653125 0.146851 1.60312 0.146851H36.4562C37.3469 0.146851 38 0.799976 38 1.74998V23.8969C38 24.8469 37.3469 25.5 36.3969 25.5H13.1219L2.375 31.675C2.07812 31.8531 1.9 31.8531 1.60312 31.8531ZM3.14688 3.3531V27.5781L11.875 22.65C12.1719 22.3531 12.35 22.3531 12.6469 22.3531H34.7938V3.3531H3.14688Z" fill="black"/>
<path d="M9.4999 15.9999C11.2379 15.9999 12.6468 14.591 12.6468 12.8531C12.6468 11.1151 11.2379 9.70618 9.4999 9.70618C7.76193 9.70618 6.35303 11.1151 6.35303 12.8531C6.35303 14.591 7.76193 15.9999 9.4999 15.9999Z" fill="black"/>
<path d="M18.9999 15.9999C20.7379 15.9999 22.1468 14.591 22.1468 12.8531C22.1468 11.1151 20.7379 9.70618 18.9999 9.70618C17.2619 9.70618 15.853 11.1151 15.853 12.8531C15.853 14.591 17.2619 15.9999 18.9999 15.9999Z" fill="black"/>
<path d="M28.4999 15.9999C30.2379 15.9999 31.6468 14.591 31.6468 12.8531C31.6468 11.1151 30.2379 9.70618 28.4999 9.70618C26.7619 9.70618 25.353 11.1151 25.353 12.8531C25.353 14.591 26.7619 15.9999 28.4999 15.9999Z" fill="black"/>
</svg>
