<svg width="144" height="144" viewBox="0 0 144 144" fill="none" xmlns="http://www.w3.org/2000/svg">
<path d="M91.8 65.925H54C42.075 65.925 31.725 56.25 31.725 45C31.725 33.75 41.85 24.075 54 24.075H114.075C117.675 24.075 120.15 21.6 120.15 18C120.15 14.4 117.675 11.925 114.075 11.925H83.925V6.075C83.925 2.475 81.45 0 77.85 0C74.475 0 72 2.475 72 6.075V12.15H54C35.325 11.925 19.8 27 19.8 45C19.8 63 35.325 77.85 54 77.85H91.8C103.725 77.85 114.075 87.525 114.075 98.775C114.075 110.025 103.95 119.7 91.8 119.7H24.075C20.475 119.7 18 122.175 18 125.775C18 129.375 20.475 131.85 24.075 131.85H72V137.925C72 141.525 74.475 144 78.075 144C81.675 144 84.15 141.525 84.15 137.925V131.85H92.025C110.475 131.85 126 116.775 126 98.775C126 80.775 110.475 65.925 91.8 65.925Z" fill="#3C8CA9"/>
</svg>
