<svg width="174" height="174" viewBox="0 0 174 174" fill="none" xmlns="http://www.w3.org/2000/svg">
<path d="M153.609 53.0155L97.8747 4.3499C91.3497 -1.35947 81.834 -1.35947 76.1247 4.3499L20.3903 53.0155C16.8559 56.5499 14.6809 60.8999 14.6809 66.0655V157.416C14.6809 166.931 22.0215 174 31.2653 174H56.0059C65.5215 174 72.5903 166.659 72.5903 157.416V125.334C72.5903 123.975 73.4059 123.159 74.7653 123.159H99.5059C100.865 123.159 101.681 123.975 101.681 125.334V157.144C101.681 166.659 109.022 173.728 118.265 173.728H143.006C152.522 173.728 159.59 166.387 159.59 157.144V66.0655C159.59 60.8999 157.415 56.5499 153.609 53.0155ZM144.909 157.416C144.909 158.775 144.093 159.591 142.734 159.591H117.993C116.634 159.591 115.818 158.775 115.818 157.416V125.334C115.818 115.819 108.478 108.75 99.234 108.75H74.4934C64.9778 108.75 57.909 116.091 57.909 125.334V157.144C57.909 158.503 57.0934 159.319 55.734 159.319H30.9934C29.634 159.319 28.8184 158.503 28.8184 157.144V66.0655C28.8184 65.2499 28.8184 64.7062 29.634 64.7062L85.6403 16.0405C86.4559 15.2249 87.8153 15.2249 88.6309 16.0405L144.093 64.7062C144.909 64.7062 144.909 65.5218 144.909 66.0655V157.416Z" fill="#177790"/>
</svg>
