<svg width="72" height="100" viewBox="0 0 72 100" fill="none" xmlns="http://www.w3.org/2000/svg">
<path d="M60.0075 10.4856C52.5839 3.2994 43.1497 -0.293675 33.2516 0.0187665C14.8472 1.26853 0 17.5155 0 36.8868C0 49.3845 5.41305 60.9448 14.8472 67.9748V85.4715C14.8472 93.2825 21.0336 100 28.7665 100H42.3764C49.8 100 56.2957 93.7512 56.2957 85.4715V68.131C65.7299 61.101 71.4522 49.8532 71.4522 37.5117C70.9882 27.3574 67.2764 17.5155 60.0075 10.4856ZM41.9124 91.2516H28.3025C25.0547 91.2516 22.5801 88.7521 22.5801 85.0028V70.4743H47.1708V85.0028C47.6348 88.7521 45.1603 91.2516 41.9124 91.2516ZM49.6454 62.1946H39.4379V50.1656L48.4081 43.1357C50.1093 41.8859 50.4187 38.9177 49.1814 37.3555C47.9441 35.6371 45.0056 35.3246 43.459 36.5744L39.2832 39.855V33.2938C39.2832 30.7942 37.582 29.0758 35.1075 29.0758C32.6329 29.0758 30.9317 30.7942 30.9317 33.2938V40.3237L25.2093 36.5744C23.1988 35.3246 20.7242 35.7933 19.487 37.8242C18.2497 39.855 18.7137 42.3546 20.7242 43.6043L30.9317 50.6343V62.1946H20.7242C12.5273 56.7269 7.57827 47.1974 7.57827 36.8868C7.57827 21.5772 19.023 9.07957 33.0969 8.29846C33.5609 8.29846 34.3342 8.29846 34.7982 8.29846C41.7578 8.29846 48.7174 11.2667 53.6665 16.1095C59.0795 21.8897 62.3274 29.3883 62.3274 37.1993C62.7913 47.6661 57.8423 56.8831 49.6454 62.1946Z" fill="url(#paint0_linear)"/>
<defs>
<linearGradient id="paint0_linear" x1="36" y1="5.9935e-08" x2="36" y2="91.5" gradientUnits="userSpaceOnUse">
<stop/>
<stop offset="1" stop-color="#177790"/>
</linearGradient>
</defs>
</svg>
