<svg width="100" height="100" viewBox="0 0 100 100" fill="none" xmlns="http://www.w3.org/2000/svg">
<path d="M86.2495 11.7188C85.4683 11.7188 84.2183 11.7188 83.2808 11.7188V5.78125C83.2808 2.5 80.7808 0 77.4995 0H14.2183C10.7808 0 8.28076 2.5 8.28076 5.78125V65.3125C8.28076 66.5625 8.74951 67.3438 9.53076 68.2812L40.312 98.75C41.0933 99.5312 42.0308 100 43.2808 100H77.4995C80.7808 100 83.2808 97.5 83.2808 94.2188V88.4375L91.2495 72.6562C91.7183 72.1875 91.7183 71.4062 91.7183 70.9375V16.7188C91.7183 14.2188 89.5308 11.7188 86.2495 11.7188ZM83.2808 25H74.9995V19.5312C77.9683 19.5312 80.4683 19.5312 83.2808 19.5312V25ZM37.4995 84.2188L24.2183 70.9375H37.4995V84.2188ZM45.7808 91.7188V67.5C45.7808 64.5312 43.2808 62.5 40.7808 62.5H16.7183V8.28125H74.9995V11.5625C74.2183 11.5625 72.9683 11.5625 72.0308 11.5625C69.062 11.5625 66.562 13.5938 66.562 16.5625V70.3125C66.562 71.0938 66.562 71.5625 67.0308 72.3438L74.9995 88.2812V91.5625H45.7808V91.7188ZM79.2183 77.9688L74.9995 69.5312V33.2812H83.2808V69.5312L79.2183 77.9688Z" fill="url(#paint0_linear)"/>
<defs>
<linearGradient id="paint0_linear" x1="49.9995" y1="0" x2="49.9995" y2="100" gradientUnits="userSpaceOnUse">
<stop/>
<stop offset="1" stop-color="#177790"/>
</linearGradient>
</defs>
</svg>
